<svg width="552" height="746" viewBox="0 0 552 746" fill="none" xmlns="http://www.w3.org/2000/svg">
<g clip-path="url(#clip0_1303_12363)">
<path d="M406 144C407.105 144 408 144.895 408 146C408 147.105 407.105 148 406 148C404.895 148 404 147.105 404 146C404 144.895 404.895 144 406 144ZM433 144C434.105 144 435 144.895 435 146C435 147.105 434.105 148 433 148C431.895 148 431 147.105 431 146C431 144.895 431.895 144 433 144ZM463 144C464.105 144 465 144.895 465 146C465 147.105 464.105 148 463 148C461.895 148 461 147.105 461 146C461 144.895 461.895 144 463 144ZM493 144C494.105 144 495 144.895 495 146C495 147.105 494.105 148 493 148C491.895 148 491 147.105 491 146C491 144.895 491.895 144 493 144ZM523 144C524.105 144 525 144.895 525 146C525 147.105 524.105 148 523 148C521.895 148 521 147.105 521 146C521 144.895 521.895 144 523 144ZM550 144C551.105 144 552 144.895 552 146C552 147.105 551.105 148 550 148C548.895 148 548 147.105 548 146C548 144.895 548.895 144 550 144ZM406 117C407.105 117 408 117.895 408 119C408 120.105 407.105 121 406 121C404.895 121 404 120.105 404 119C404 117.895 404.895 117 406 117ZM433 117C434.105 117 435 117.895 435 119C435 120.105 434.105 121 433 121C431.895 121 431 120.105 431 119C431 117.895 431.895 117 433 117ZM463 117C464.105 117 465 117.895 465 119C465 120.105 464.105 121 463 121C461.895 121 461 120.105 461 119C461 117.895 461.895 117 463 117ZM493 117C494.105 117 495 117.895 495 119C495 120.105 494.105 121 493 121C491.895 121 491 120.105 491 119C491 117.895 491.895 117 493 117ZM523 117C524.105 117 525 117.895 525 119C525 120.105 524.105 121 523 121C521.895 121 521 120.105 521 119C521 117.895 521.895 117 523 117ZM550 117C551.105 117 552 117.895 552 119C552 120.105 551.105 121 550 121C548.895 121 548 120.105 548 119C548 117.895 548.895 117 550 117ZM406 87C407.105 87 408 87.8954 408 89C408 90.1046 407.105 91 406 91C404.895 91 404 90.1046 404 89C404 87.8954 404.895 87 406 87ZM433 87C434.105 87 435 87.8954 435 89C435 90.1046 434.105 91 433 91C431.895 91 431 90.1046 431 89C431 87.8954 431.895 87 433 87ZM463 87C464.105 87 465 87.8954 465 89C465 90.1046 464.105 91 463 91C461.895 91 461 90.1046 461 89C461 87.8954 461.895 87 463 87ZM493 87C494.105 87 495 87.8954 495 89C495 90.1046 494.105 91 493 91C491.895 91 491 90.1046 491 89C491 87.8954 491.895 87 493 87ZM523 87C524.105 87 525 87.8954 525 89C525 90.1046 524.105 91 523 91C521.895 91 521 90.1046 521 89C521 87.8954 521.895 87 523 87ZM550 87C551.105 87 552 87.8954 552 89C552 90.1046 551.105 91 550 91C548.895 91 548 90.1046 548 89C548 87.8954 548.895 87 550 87ZM406 57C407.105 57 408 57.8954 408 59C408 60.1046 407.105 61 406 61C404.895 61 404 60.1046 404 59C404 57.8954 404.895 57 406 57ZM523 57C524.105 57 525 57.8954 525 59C525 60.1046 524.105 61 523 61C521.895 61 521 60.1046 521 59C521 57.8954 521.895 57 523 57ZM463 57C464.105 57 465 57.8954 465 59C465 60.1046 464.105 61 463 61C461.895 61 461 60.1046 461 59C461 57.8954 461.895 57 463 57ZM550 57C551.105 57 552 57.8954 552 59C552 60.1046 551.105 61 550 61C548.895 61 548 60.1046 548 59C548 57.8954 548.895 57 550 57ZM433 57C434.105 57 435 57.8954 435 59C435 60.1046 434.105 61 433 61C431.895 61 431 60.1046 431 59C431 57.8954 431.895 57 433 57ZM493 57C494.105 57 495 57.8954 495 59C495 60.1046 494.105 61 493 61C491.895 61 491 60.1046 491 59C491 57.8954 491.895 57 493 57ZM406 27C407.105 27 408 27.8954 408 29C408 30.1046 407.105 31 406 31C404.895 31 404 30.1046 404 29C404 27.8954 404.895 27 406 27ZM433 27C434.105 27 435 27.8954 435 29C435 30.1046 434.105 31 433 31C431.895 31 431 30.1046 431 29C431 27.8954 431.895 27 433 27ZM463 27C464.105 27 465 27.8954 465 29C465 30.1046 464.105 31 463 31C461.895 31 461 30.1046 461 29C461 27.8954 461.895 27 463 27ZM493 27C494.105 27 495 27.8954 495 29C495 30.1046 494.105 31 493 31C491.895 31 491 30.1046 491 29C491 27.8954 491.895 27 493 27ZM523 27C524.105 27 525 27.8954 525 29C525 30.1046 524.105 31 523 31C521.895 31 521 30.1046 521 29C521 27.8954 521.895 27 523 27ZM550 27C551.105 27 552 27.8954 552 29C552 30.1046 551.105 31 550 31C548.895 31 548 30.1046 548 29C548 27.8954 548.895 27 550 27ZM406 0C407.105 0 408 0.89543 408 2C408 3.10457 407.105 4 406 4C404.895 4 404 3.10457 404 2C404 0.89543 404.895 0 406 0ZM433 0C434.105 0 435 0.89543 435 2C435 3.10457 434.105 4 433 4C431.895 4 431 3.10457 431 2C431 0.89543 431.895 0 433 0ZM463 0C464.105 0 465 0.89543 465 2C465 3.10457 464.105 4 463 4C461.895 4 461 3.10457 461 2C461 0.89543 461.895 0 463 0ZM493 0C494.105 0 495 0.89543 495 2C495 3.10457 494.105 4 493 4C491.895 4 491 3.10457 491 2C491 0.89543 491.895 0 493 0ZM523 0C524.105 0 525 0.89543 525 2C525 3.10457 524.105 4 523 4C521.895 4 521 3.10457 521 2C521 0.89543 521.895 0 523 0ZM550 0C551.105 0 552 0.89543 552 2C552 3.10457 551.105 4 550 4C548.895 4 548 3.10457 548 2C548 0.89543 548.895 0 550 0Z" fill="#010886"/>
<path d="M406 144C407.105 144 408 144.895 408 146C408 147.105 407.105 148 406 148C404.895 148 404 147.105 404 146C404 144.895 404.895 144 406 144ZM433 144C434.105 144 435 144.895 435 146C435 147.105 434.105 148 433 148C431.895 148 431 147.105 431 146C431 144.895 431.895 144 433 144ZM463 144C464.105 144 465 144.895 465 146C465 147.105 464.105 148 463 148C461.895 148 461 147.105 461 146C461 144.895 461.895 144 463 144ZM493 144C494.105 144 495 144.895 495 146C495 147.105 494.105 148 493 148C491.895 148 491 147.105 491 146C491 144.895 491.895 144 493 144ZM523 144C524.105 144 525 144.895 525 146C525 147.105 524.105 148 523 148C521.895 148 521 147.105 521 146C521 144.895 521.895 144 523 144ZM550 144C551.105 144 552 144.895 552 146C552 147.105 551.105 148 550 148C548.895 148 548 147.105 548 146C548 144.895 548.895 144 550 144ZM406 117C407.105 117 408 117.895 408 119C408 120.105 407.105 121 406 121C404.895 121 404 120.105 404 119C404 117.895 404.895 117 406 117ZM433 117C434.105 117 435 117.895 435 119C435 120.105 434.105 121 433 121C431.895 121 431 120.105 431 119C431 117.895 431.895 117 433 117ZM463 117C464.105 117 465 117.895 465 119C465 120.105 464.105 121 463 121C461.895 121 461 120.105 461 119C461 117.895 461.895 117 463 117ZM493 117C494.105 117 495 117.895 495 119C495 120.105 494.105 121 493 121C491.895 121 491 120.105 491 119C491 117.895 491.895 117 493 117ZM523 117C524.105 117 525 117.895 525 119C525 120.105 524.105 121 523 121C521.895 121 521 120.105 521 119C521 117.895 521.895 117 523 117ZM550 117C551.105 117 552 117.895 552 119C552 120.105 551.105 121 550 121C548.895 121 548 120.105 548 119C548 117.895 548.895 117 550 117ZM406 87C407.105 87 408 87.8954 408 89C408 90.1046 407.105 91 406 91C404.895 91 404 90.1046 404 89C404 87.8954 404.895 87 406 87ZM433 87C434.105 87 435 87.8954 435 89C435 90.1046 434.105 91 433 91C431.895 91 431 90.1046 431 89C431 87.8954 431.895 87 433 87ZM463 87C464.105 87 465 87.8954 465 89C465 90.1046 464.105 91 463 91C461.895 91 461 90.1046 461 89C461 87.8954 461.895 87 463 87ZM493 87C494.105 87 495 87.8954 495 89C495 90.1046 494.105 91 493 91C491.895 91 491 90.1046 491 89C491 87.8954 491.895 87 493 87ZM523 87C524.105 87 525 87.8954 525 89C525 90.1046 524.105 91 523 91C521.895 91 521 90.1046 521 89C521 87.8954 521.895 87 523 87ZM550 87C551.105 87 552 87.8954 552 89C552 90.1046 551.105 91 550 91C548.895 91 548 90.1046 548 89C548 87.8954 548.895 87 550 87ZM406 57C407.105 57 408 57.8954 408 59C408 60.1046 407.105 61 406 61C404.895 61 404 60.1046 404 59C404 57.8954 404.895 57 406 57ZM523 57C524.105 57 525 57.8954 525 59C525 60.1046 524.105 61 523 61C521.895 61 521 60.1046 521 59C521 57.8954 521.895 57 523 57ZM463 57C464.105 57 465 57.8954 465 59C465 60.1046 464.105 61 463 61C461.895 61 461 60.1046 461 59C461 57.8954 461.895 57 463 57ZM550 57C551.105 57 552 57.8954 552 59C552 60.1046 551.105 61 550 61C548.895 61 548 60.1046 548 59C548 57.8954 548.895 57 550 57ZM433 57C434.105 57 435 57.8954 435 59C435 60.1046 434.105 61 433 61C431.895 61 431 60.1046 431 59C431 57.8954 431.895 57 433 57ZM493 57C494.105 57 495 57.8954 495 59C495 60.1046 494.105 61 493 61C491.895 61 491 60.1046 491 59C491 57.8954 491.895 57 493 57ZM406 27C407.105 27 408 27.8954 408 29C408 30.1046 407.105 31 406 31C404.895 31 404 30.1046 404 29C404 27.8954 404.895 27 406 27ZM433 27C434.105 27 435 27.8954 435 29C435 30.1046 434.105 31 433 31C431.895 31 431 30.1046 431 29C431 27.8954 431.895 27 433 27ZM463 27C464.105 27 465 27.8954 465 29C465 30.1046 464.105 31 463 31C461.895 31 461 30.1046 461 29C461 27.8954 461.895 27 463 27ZM493 27C494.105 27 495 27.8954 495 29C495 30.1046 494.105 31 493 31C491.895 31 491 30.1046 491 29C491 27.8954 491.895 27 493 27ZM523 27C524.105 27 525 27.8954 525 29C525 30.1046 524.105 31 523 31C521.895 31 521 30.1046 521 29C521 27.8954 521.895 27 523 27ZM550 27C551.105 27 552 27.8954 552 29C552 30.1046 551.105 31 550 31C548.895 31 548 30.1046 548 29C548 27.8954 548.895 27 550 27ZM406 0C407.105 0 408 0.89543 408 2C408 3.10457 407.105 4 406 4C404.895 4 404 3.10457 404 2C404 0.89543 404.895 0 406 0ZM433 0C434.105 0 435 0.89543 435 2C435 3.10457 434.105 4 433 4C431.895 4 431 3.10457 431 2C431 0.89543 431.895 0 433 0ZM463 0C464.105 0 465 0.89543 465 2C465 3.10457 464.105 4 463 4C461.895 4 461 3.10457 461 2C461 0.89543 461.895 0 463 0ZM493 0C494.105 0 495 0.89543 495 2C495 3.10457 494.105 4 493 4C491.895 4 491 3.10457 491 2C491 0.89543 491.895 0 493 0ZM523 0C524.105 0 525 0.89543 525 2C525 3.10457 524.105 4 523 4C521.895 4 521 3.10457 521 2C521 0.89543 521.895 0 523 0ZM550 0C551.105 0 552 0.89543 552 2C552 3.10457 551.105 4 550 4C548.895 4 548 3.10457 548 2C548 0.89543 548.895 0 550 0Z" fill="white" fill-opacity="0.6"/>
</g>
<g clip-path="url(#clip1_1303_12363)">
<path opacity="0.04" d="M205 505.4H10C4.47715 505.4 0 509.877 0 515.4V711.4C0 716.923 4.47715 721.4 10 721.4H205C210.523 721.4 215 716.923 215 711.4V515.4C215 509.877 210.523 505.4 205 505.4Z" fill="#010886"/>
<path opacity="0.48" d="M232.5 605.9H114.5C108.977 605.9 104.5 610.377 104.5 615.9V734.9C104.5 740.423 108.977 744.9 114.5 744.9H232.5C238.023 744.9 242.5 740.423 242.5 734.9V615.9C242.5 610.377 238.023 605.9 232.5 605.9Z" stroke="#A1ACB8"/>
<path d="M34.5 687.4C35.8807 687.4 37 688.519 37 689.9C37 691.281 35.8807 692.4 34.5 692.4C33.1193 692.4 32 691.281 32 689.9C32 688.519 33.1193 687.4 34.5 687.4ZM61.5 687.4C62.8807 687.4 64 688.519 64 689.9C64 691.281 62.8807 692.4 61.5 692.4C60.1193 692.4 59 691.281 59 689.9C59 688.519 60.1193 687.4 61.5 687.4ZM91.5 687.4C92.8807 687.4 94 688.519 94 689.9C94 691.281 92.8807 692.4 91.5 692.4C90.1193 692.4 89 691.281 89 689.9C89 688.519 90.1193 687.4 91.5 687.4ZM123.5 687.4C124.881 687.4 126 688.519 126 689.9C126 691.281 124.881 692.4 123.5 692.4C122.119 692.4 121 691.281 121 689.9C121 688.519 122.119 687.4 123.5 687.4ZM153.5 687.4C154.881 687.4 156 688.519 156 689.9C156 691.281 154.881 692.4 153.5 692.4C152.119 692.4 151 691.281 151 689.9C151 688.519 152.119 687.4 153.5 687.4ZM180.5 687.4C181.881 687.4 183 688.519 183 689.9C183 691.281 181.881 692.4 180.5 692.4C179.119 692.4 178 691.281 178 689.9C178 688.519 179.119 687.4 180.5 687.4ZM34.5 659.4C35.8807 659.4 37 660.519 37 661.9C37 663.281 35.8807 664.4 34.5 664.4C33.1193 664.4 32 663.281 32 661.9C32 660.519 33.1193 659.4 34.5 659.4ZM61.5 659.4C62.8807 659.4 64 660.519 64 661.9C64 663.281 62.8807 664.4 61.5 664.4C60.1193 664.4 59 663.281 59 661.9C59 660.519 60.1193 659.4 61.5 659.4ZM91.5 659.4C92.8807 659.4 94 660.519 94 661.9C94 663.281 92.8807 664.4 91.5 664.4C90.1193 664.4 89 663.281 89 661.9C89 660.519 90.1193 659.4 91.5 659.4ZM123.5 659.4C124.881 659.4 126 660.519 126 661.9C126 663.281 124.881 664.4 123.5 664.4C122.119 664.4 121 663.281 121 661.9C121 660.519 122.119 659.4 123.5 659.4ZM153.5 659.4C154.881 659.4 156 660.519 156 661.9C156 663.281 154.881 664.4 153.5 664.4C152.119 664.4 151 663.281 151 661.9C151 660.519 152.119 659.4 153.5 659.4ZM180.5 659.4C181.881 659.4 183 660.519 183 661.9C183 663.281 181.881 664.4 180.5 664.4C179.119 664.4 178 663.281 178 661.9C178 660.519 179.119 659.4 180.5 659.4ZM34.5 629.4C35.8807 629.4 37 630.519 37 631.9C37 633.281 35.8807 634.4 34.5 634.4C33.1193 634.4 32 633.281 32 631.9C32 630.519 33.1193 629.4 34.5 629.4ZM61.5 629.4C62.8807 629.4 64 630.519 64 631.9C64 633.281 62.8807 634.4 61.5 634.4C60.1193 634.4 59 633.281 59 631.9C59 630.519 60.1193 629.4 61.5 629.4ZM91.5 629.4C92.8807 629.4 94 630.519 94 631.9C94 633.281 92.8807 634.4 91.5 634.4C90.1193 634.4 89 633.281 89 631.9C89 630.519 90.1193 629.4 91.5 629.4ZM123.5 629.4C124.881 629.4 126 630.519 126 631.9C126 633.281 124.881 634.4 123.5 634.4C122.119 634.4 121 633.281 121 631.9C121 630.519 122.119 629.4 123.5 629.4ZM153.5 629.4C154.881 629.4 156 630.519 156 631.9C156 633.281 154.881 634.4 153.5 634.4C152.119 634.4 151 633.281 151 631.9C151 630.519 152.119 629.4 153.5 629.4ZM180.5 629.4C181.881 629.4 183 630.519 183 631.9C183 633.281 181.881 634.4 180.5 634.4C179.119 634.4 178 633.281 178 631.9C178 630.519 179.119 629.4 180.5 629.4ZM34.5 599.4C35.8807 599.4 37 600.519 37 601.9C37 603.281 35.8807 604.4 34.5 604.4C33.1193 604.4 32 603.281 32 601.9C32 600.519 33.1193 599.4 34.5 599.4ZM153.5 599.4C154.881 599.4 156 600.519 156 601.9C156 603.281 154.881 604.4 153.5 604.4C152.119 604.4 151 603.281 151 601.9C151 600.519 152.119 599.4 153.5 599.4ZM91.5 599.4C92.8807 599.4 94 600.519 94 601.9C94 603.281 92.8807 604.4 91.5 604.4C90.1193 604.4 89 603.281 89 601.9C89 600.519 90.1193 599.4 91.5 599.4ZM180.5 599.4C181.881 599.4 183 600.519 183 601.9C183 603.281 181.881 604.4 180.5 604.4C179.119 604.4 178 603.281 178 601.9C178 600.519 179.119 599.4 180.5 599.4ZM61.5 599.4C62.8807 599.4 64 600.519 64 601.9C64 603.281 62.8807 604.4 61.5 604.4C60.1193 604.4 59 603.281 59 601.9C59 600.519 60.1193 599.4 61.5 599.4ZM123.5 599.4C124.881 599.4 126 600.519 126 601.9C126 603.281 124.881 604.4 123.5 604.4C122.119 604.4 121 603.281 121 601.9C121 600.519 122.119 599.4 123.5 599.4ZM34.5 569.4C35.8807 569.4 37 570.519 37 571.9C37 573.281 35.8807 574.4 34.5 574.4C33.1193 574.4 32 573.281 32 571.9C32 570.519 33.1193 569.4 34.5 569.4ZM61.5 569.4C62.8807 569.4 64 570.519 64 571.9C64 573.281 62.8807 574.4 61.5 574.4C60.1193 574.4 59 573.281 59 571.9C59 570.519 60.1193 569.4 61.5 569.4ZM91.5 569.4C92.8807 569.4 94 570.519 94 571.9C94 573.281 92.8807 574.4 91.5 574.4C90.1193 574.4 89 573.281 89 571.9C89 570.519 90.1193 569.4 91.5 569.4ZM123.5 569.4C124.881 569.4 126 570.519 126 571.9C126 573.281 124.881 574.4 123.5 574.4C122.119 574.4 121 573.281 121 571.9C121 570.519 122.119 569.4 123.5 569.4ZM153.5 569.4C154.881 569.4 156 570.519 156 571.9C156 573.281 154.881 574.4 153.5 574.4C152.119 574.4 151 573.281 151 571.9C151 570.519 152.119 569.4 153.5 569.4ZM180.5 569.4C181.881 569.4 183 570.519 183 571.9C183 573.281 181.881 574.4 180.5 574.4C179.119 574.4 178 573.281 178 571.9C178 570.519 179.119 569.4 180.5 569.4ZM34.5 542.4C35.8807 542.4 37 543.519 37 544.9C37 546.281 35.8807 547.4 34.5 547.4C33.1193 547.4 32 546.281 32 544.9C32 543.519 33.1193 542.4 34.5 542.4ZM61.5 542.4C62.8807 542.4 64 543.519 64 544.9C64 546.281 62.8807 547.4 61.5 547.4C60.1193 547.4 59 546.281 59 544.9C59 543.519 60.1193 542.4 61.5 542.4ZM91.5 542.4C92.8807 542.4 94 543.519 94 544.9C94 546.281 92.8807 547.4 91.5 547.4C90.1193 547.4 89 546.281 89 544.9C89 543.519 90.1193 542.4 91.5 542.4ZM123.5 542.4C124.881 542.4 126 543.519 126 544.9C126 546.281 124.881 547.4 123.5 547.4C122.119 547.4 121 546.281 121 544.9C121 543.519 122.119 542.4 123.5 542.4ZM153.5 542.4C154.881 542.4 156 543.519 156 544.9C156 546.281 154.881 547.4 153.5 547.4C152.119 547.4 151 546.281 151 544.9C151 543.519 152.119 542.4 153.5 542.4ZM180.5 542.4C181.881 542.4 183 543.519 183 544.9C183 546.281 181.881 547.4 180.5 547.4C179.119 547.4 178 546.281 178 544.9C178 543.519 179.119 542.4 180.5 542.4Z" fill="#010886"/>
<path d="M34.5 687.4C35.8807 687.4 37 688.519 37 689.9C37 691.281 35.8807 692.4 34.5 692.4C33.1193 692.4 32 691.281 32 689.9C32 688.519 33.1193 687.4 34.5 687.4ZM61.5 687.4C62.8807 687.4 64 688.519 64 689.9C64 691.281 62.8807 692.4 61.5 692.4C60.1193 692.4 59 691.281 59 689.9C59 688.519 60.1193 687.4 61.5 687.4ZM91.5 687.4C92.8807 687.4 94 688.519 94 689.9C94 691.281 92.8807 692.4 91.5 692.4C90.1193 692.4 89 691.281 89 689.9C89 688.519 90.1193 687.4 91.5 687.4ZM123.5 687.4C124.881 687.4 126 688.519 126 689.9C126 691.281 124.881 692.4 123.5 692.4C122.119 692.4 121 691.281 121 689.9C121 688.519 122.119 687.4 123.5 687.4ZM153.5 687.4C154.881 687.4 156 688.519 156 689.9C156 691.281 154.881 692.4 153.5 692.4C152.119 692.4 151 691.281 151 689.9C151 688.519 152.119 687.4 153.5 687.4ZM180.5 687.4C181.881 687.4 183 688.519 183 689.9C183 691.281 181.881 692.4 180.5 692.4C179.119 692.4 178 691.281 178 689.9C178 688.519 179.119 687.4 180.5 687.4ZM34.5 659.4C35.8807 659.4 37 660.519 37 661.9C37 663.281 35.8807 664.4 34.5 664.4C33.1193 664.4 32 663.281 32 661.9C32 660.519 33.1193 659.4 34.5 659.4ZM61.5 659.4C62.8807 659.4 64 660.519 64 661.9C64 663.281 62.8807 664.4 61.5 664.4C60.1193 664.4 59 663.281 59 661.9C59 660.519 60.1193 659.4 61.5 659.4ZM91.5 659.4C92.8807 659.4 94 660.519 94 661.9C94 663.281 92.8807 664.4 91.5 664.4C90.1193 664.4 89 663.281 89 661.9C89 660.519 90.1193 659.4 91.5 659.4ZM123.5 659.4C124.881 659.4 126 660.519 126 661.9C126 663.281 124.881 664.4 123.5 664.4C122.119 664.4 121 663.281 121 661.9C121 660.519 122.119 659.4 123.5 659.4ZM153.5 659.4C154.881 659.4 156 660.519 156 661.9C156 663.281 154.881 664.4 153.5 664.4C152.119 664.4 151 663.281 151 661.9C151 660.519 152.119 659.4 153.5 659.4ZM180.5 659.4C181.881 659.4 183 660.519 183 661.9C183 663.281 181.881 664.4 180.5 664.4C179.119 664.4 178 663.281 178 661.9C178 660.519 179.119 659.4 180.5 659.4ZM34.5 629.4C35.8807 629.4 37 630.519 37 631.9C37 633.281 35.8807 634.4 34.5 634.4C33.1193 634.4 32 633.281 32 631.9C32 630.519 33.1193 629.4 34.5 629.4ZM61.5 629.4C62.8807 629.4 64 630.519 64 631.9C64 633.281 62.8807 634.4 61.5 634.4C60.1193 634.4 59 633.281 59 631.9C59 630.519 60.1193 629.4 61.5 629.4ZM91.5 629.4C92.8807 629.4 94 630.519 94 631.9C94 633.281 92.8807 634.4 91.5 634.4C90.1193 634.4 89 633.281 89 631.9C89 630.519 90.1193 629.4 91.5 629.4ZM123.5 629.4C124.881 629.4 126 630.519 126 631.9C126 633.281 124.881 634.4 123.5 634.4C122.119 634.4 121 633.281 121 631.9C121 630.519 122.119 629.4 123.5 629.4ZM153.5 629.4C154.881 629.4 156 630.519 156 631.9C156 633.281 154.881 634.4 153.5 634.4C152.119 634.4 151 633.281 151 631.9C151 630.519 152.119 629.4 153.5 629.4ZM180.5 629.4C181.881 629.4 183 630.519 183 631.9C183 633.281 181.881 634.4 180.5 634.4C179.119 634.4 178 633.281 178 631.9C178 630.519 179.119 629.4 180.5 629.4ZM34.5 599.4C35.8807 599.4 37 600.519 37 601.9C37 603.281 35.8807 604.4 34.5 604.4C33.1193 604.4 32 603.281 32 601.9C32 600.519 33.1193 599.4 34.5 599.4ZM153.5 599.4C154.881 599.4 156 600.519 156 601.9C156 603.281 154.881 604.4 153.5 604.4C152.119 604.4 151 603.281 151 601.9C151 600.519 152.119 599.4 153.5 599.4ZM91.5 599.4C92.8807 599.4 94 600.519 94 601.9C94 603.281 92.8807 604.4 91.5 604.4C90.1193 604.4 89 603.281 89 601.9C89 600.519 90.1193 599.4 91.5 599.4ZM180.5 599.4C181.881 599.4 183 600.519 183 601.9C183 603.281 181.881 604.4 180.5 604.4C179.119 604.4 178 603.281 178 601.9C178 600.519 179.119 599.4 180.5 599.4ZM61.5 599.4C62.8807 599.4 64 600.519 64 601.9C64 603.281 62.8807 604.4 61.5 604.4C60.1193 604.4 59 603.281 59 601.9C59 600.519 60.1193 599.4 61.5 599.4ZM123.5 599.4C124.881 599.4 126 600.519 126 601.9C126 603.281 124.881 604.4 123.5 604.4C122.119 604.4 121 603.281 121 601.9C121 600.519 122.119 599.4 123.5 599.4ZM34.5 569.4C35.8807 569.4 37 570.519 37 571.9C37 573.281 35.8807 574.4 34.5 574.4C33.1193 574.4 32 573.281 32 571.9C32 570.519 33.1193 569.4 34.5 569.4ZM61.5 569.4C62.8807 569.4 64 570.519 64 571.9C64 573.281 62.8807 574.4 61.5 574.4C60.1193 574.4 59 573.281 59 571.9C59 570.519 60.1193 569.4 61.5 569.4ZM91.5 569.4C92.8807 569.4 94 570.519 94 571.9C94 573.281 92.8807 574.4 91.5 574.4C90.1193 574.4 89 573.281 89 571.9C89 570.519 90.1193 569.4 91.5 569.4ZM123.5 569.4C124.881 569.4 126 570.519 126 571.9C126 573.281 124.881 574.4 123.5 574.4C122.119 574.4 121 573.281 121 571.9C121 570.519 122.119 569.4 123.5 569.4ZM153.5 569.4C154.881 569.4 156 570.519 156 571.9C156 573.281 154.881 574.4 153.5 574.4C152.119 574.4 151 573.281 151 571.9C151 570.519 152.119 569.4 153.5 569.4ZM180.5 569.4C181.881 569.4 183 570.519 183 571.9C183 573.281 181.881 574.4 180.5 574.4C179.119 574.4 178 573.281 178 571.9C178 570.519 179.119 569.4 180.5 569.4ZM34.5 542.4C35.8807 542.4 37 543.519 37 544.9C37 546.281 35.8807 547.4 34.5 547.4C33.1193 547.4 32 546.281 32 544.9C32 543.519 33.1193 542.4 34.5 542.4ZM61.5 542.4C62.8807 542.4 64 543.519 64 544.9C64 546.281 62.8807 547.4 61.5 547.4C60.1193 547.4 59 546.281 59 544.9C59 543.519 60.1193 542.4 61.5 542.4ZM91.5 542.4C92.8807 542.4 94 543.519 94 544.9C94 546.281 92.8807 547.4 91.5 547.4C90.1193 547.4 89 546.281 89 544.9C89 543.519 90.1193 542.4 91.5 542.4ZM123.5 542.4C124.881 542.4 126 543.519 126 544.9C126 546.281 124.881 547.4 123.5 547.4C122.119 547.4 121 546.281 121 544.9C121 543.519 122.119 542.4 123.5 542.4ZM153.5 542.4C154.881 542.4 156 543.519 156 544.9C156 546.281 154.881 547.4 153.5 547.4C152.119 547.4 151 546.281 151 544.9C151 543.519 152.119 542.4 153.5 542.4ZM180.5 542.4C181.881 542.4 183 543.519 183 544.9C183 546.281 181.881 547.4 180.5 547.4C179.119 547.4 178 546.281 178 544.9C178 543.519 179.119 542.4 180.5 542.4Z" fill="white" fill-opacity="0.6"/>
</g>
<defs>
<clipPath id="clip0_1303_12363">
<rect width="148" height="148" fill="white" transform="translate(404)"/>
</clipPath>
<clipPath id="clip1_1303_12363">
<rect width="243" height="240" fill="white" transform="translate(0 505.4)"/>
</clipPath>
</defs>
</svg>